<?xml version="1.0" encoding="UTF-8"?>
<svg id="Layer_2" data-name="Layer 2" xmlns="http://www.w3.org/2000/svg" xmlns:xlink="http://www.w3.org/1999/xlink" viewBox="0 0 182.59 69.12">
  <defs>
    <linearGradient id="linear-gradient" x1="-548.99" y1="15273.25" x2="-538.8" y2="15204.73" gradientTransform="translate(564 15267.42) scale(1 -1)" gradientUnits="userSpaceOnUse">
      <stop offset="0" stop-color="#fce153"/>
      <stop offset=".4" stop-color="#fe9446"/>
      <stop offset="1" stop-color="#b32df6"/>
    </linearGradient>
  </defs>
  <g id="Layer_1-2" data-name="Layer 1">
    <g>
      <path d="M69.09,69.12c-5.51,0-10.44-1.17-14.7-3.59l2.28-8.14c3.53,1.98,6.98,3.37,11.69,3.37,6.69,0,10.07-3.66,10.07-7.92v-3.59h-.15c-2.57,2.64-6.17,4.1-10.44,4.1-9.85,0-17.13-7.18-17.13-17.59s7.06-18.1,16.61-18.1c3.97,0,7.86,1.39,10.8,4.25h.15v-3.74h9.63v31.74c0,11.21-4.92,19.2-18.82,19.2ZM69.6,44.72c5.29,0,9.04-3.88,9.04-9.31s-3.9-9.09-9.04-9.09-9.11,3.74-9.11,9.16,3.97,9.24,9.11,9.24Z" style="fill: #032b42; stroke-width: 0px;"/>
      <path d="M93.83,54.02V.08h9.63v53.95h-9.63Z" style="fill: #032b42; stroke-width: 0px;"/>
      <path d="M122.38,54.68c-7.79,0-13.23-3.96-13.23-14.88v-21.62h9.55v19.13c0,6.52,1.98,8.72,6.47,8.72,4.19,0,7.94-3.52,7.94-10.41v-17.44h9.7v35.84h-9.7v-4.25l-.15-.07c-2.72,3.3-6.54,4.98-10.58,4.98Z" style="fill: #032b42; stroke-width: 0px;"/>
      <path d="M182.59,35.77c0,1.17-.15,2.86-.22,3.44h-25.21c1.18,4.32,4.63,6.89,9.48,6.89,4.04,0,6.84-1.69,8.75-4.03l6.25,5.79c-3.01,3.88-7.64,6.82-15.66,6.82-11.02,0-18.82-7.4-18.82-18.62s7.57-18.4,18.23-18.4,17.2,7.62,17.2,18.1ZM165.31,26.03c-3.9,0-6.98,2.2-8.08,6.3h15.8c-.96-3.81-3.53-6.3-7.72-6.3Z" style="fill: #032b42; stroke-width: 0px;"/>
      <path d="M20.95,54.97c11.57,0,20.95-9.69,20.95-20.88,0-7.6-4.08-12.47-9.27-18.65-3.38-4.03-7.23-8.62-10.72-14.89-.41-.74-1.51-.74-1.92,0-3.49,6.27-7.34,10.86-10.72,14.89C4.08,21.63,0,26.49,0,34.1c0,11.19,9.38,20.88,20.95,20.88ZM32.56,38.45c1.11-.27,2.2.7,1.72,1.74-2.32,5.03-7.42,8.52-13.33,8.52-8.1,0-14.66-6.54-14.66-14.61,0-3.07.95-5.92,2.58-8.28.65-.94,2.05-.51,2.38.58,2.22,7.27,9.01,12.56,17.03,12.56,1.48,0,2.91-.18,4.28-.52Z" style="fill: url(#linear-gradient); fill-rule: evenodd; stroke-width: 0px;"/>
    </g>
  </g>
</svg>